# xmcd
#
# Track frame offsets:
#	150
#	10769
#	27623
#	43954
#	57433
#	68227
#	81540
#	100890
#	113234
#	127996
#	146938
#	159097
#	173774
#	189936
#	205711
#	222282
#
# Disc length: 3154 seconds
#
# Revision: 0
# Processed by: cddbd v1.5.2PL0 Copyright (c) Steve Scherf et al.
# Submitted via: dBpowerAMP V4.0
#
DISCID=e50c5010
DTITLE=Ronnie Milsap - 16 Biggest Hits
DYEAR=2007
DGENRE=Country
TTITLE0=Pure Love
TTITLE1=Smoky Mountain Rain
TTITLE2=It Was Almost Like A Song
TTITLE3=(I'm A) Stand By My Woman Man
TTITLE4=Daydreams About Night Things
TTITLE5=(I'd Be) A Legend In My Time
TTITLE6=Lost In The Fifties Tonight (In The Still Of The Night)
TTITLE7=Please Don't Tell Me How The Story Ends
TTITLE8=(There's) No Gettin' Over Me
TTITLE9=Stranger In My House
TTITLE10=My Heart
TTITLE11=A Woman In Love
TTITLE12=I Wouldn't Have Missed It For The World
TTITLE13=Only One Love In My Life
TTITLE14=Any Day Now
TTITLE15=Let My Love Be Your Pillow
EXTD=
EXTT0=
EXTT1=
EXTT2=
EXTT3=
EXTT4=
EXTT5=
EXTT6=
EXTT7=
EXTT8=
EXTT9=
EXTT10=
EXTT11=
EXTT12=
EXTT13=
EXTT14=
EXTT15=
PLAYORDER=
